# xmcd
#
# Track frame offsets: 
#        150
#        26454
#        49968
#        71763
#        99771
#        123650
#        149064
#        169747
#        193271
#        215341
#        239206
#        264019
#
# Disc length: 3856 seconds
#
# Revision: 0
# Processed by: cddbd v1.5.2PL0 Copyright (c) Steve Scherf et al.
# Submitted via: ExactAudioCopy v1.0b3
#
DISCID=b70f0e0c
DTITLE=Mix and Dorp - Blues and Beat
DYEAR=2012
DGENRE=Blues
TTITLE0=Boo Boo Davis - Who Stole The Body (Mix and Dorp Edit)
TTITLE1=Big George Jackson - What You Got (Mix and Dorp Edit)
TTITLE2=Boo Boo Davis - Keep On Lovin' Me Baby (Mix and Dorp Edit)
TTITLE3=Billy Jones - Ain't Good Lookin' (Mix and Dorp Edit)
TTITLE4=Harrion Kennedy - 40 Acres and A Mule (Mix and Dorp Edit)
TTITLE5=Boo Boo Davis - Dirty Dog (Mix and Dorp Edit)
TTITLE6=Boo Boo Davis - Hard Times (Mix and Dorp Edit)
TTITLE7=Roscoe Chenier - Bad Luck (Mix and Dorp Edit)
TTITLE8=Billy Jones - Revolution Bluez (Mix and Dorp Edit)
TTITLE9=Big George Jackson - St. Paul Woman (Mix and Dorp Edit)
TTITLE10=Boo Boo Davis - I'm So Tired (Mix and Dorp Edit)
TTITLE11=Big George Jackson - Fee Fi Fo Fam (Mix and Dorp Edit)
EXTD=
EXTT0=
EXTT1=
EXTT2=
EXTT3=
EXTT4=
EXTT5=
EXTT6=
EXTT7=
EXTT8=
EXTT9=
EXTT10=
EXTT11=
PLAYORDER=
